<svg width="204" height="11" viewBox="0 0 204 11" fill="none" xmlns="http://www.w3.org/2000/svg">
<path d="M99.3625 0.0820312L99.2169 0.366431L99.921 0.436138C99.6864 0.412917 99.677 0.511576 99.7944 0.523197C100.79 0.0241262 101.517 1.09218 102.71 1.01101L102.583 1.09807C102.79 1.41731 103.395 1.27808 103.846 1.52188C103.874 1.22588 104.137 0.953101 104.616 0.900906L104.236 1.16206L104.598 1.12282L104.601 1.16148C104.646 1.33827 105.009 1.19497 105.223 1.31938L105.283 1.36532C105.996 1.33634 104.959 1.03443 105.545 1.09254C105.4 1.37694 106.747 0.912707 107.052 1.44094L108.733 1.20891L108.597 1.39463C108.85 1.22053 109.221 1.05803 109.564 1.19158C109.681 1.2032 109.203 1.25537 109.076 1.34243C109.752 1.70816 110.766 1.01175 110.954 1.52833C111.315 1.56409 111.415 1.39718 111.393 1.26805L111.391 1.26382L111.417 1.29449C111.666 1.51381 112.444 1.40748 112.882 1.42372L112.977 1.42985L112.714 1.70263C112.968 1.52853 113.31 1.66206 113.545 1.6853C113.31 1.66206 113.193 1.65044 113.174 1.84778C113.771 1.8072 114.583 1.98721 115.315 1.76092L115.325 1.66224C115.893 1.91768 117.212 1.74948 118.17 1.64509C117.926 1.72052 117.329 1.7611 117.78 2.0049C118.728 1.99919 118.287 1.65671 119.127 1.5407C119.226 1.74966 118.512 1.77861 118.963 2.02244L119.705 1.69746L119.677 1.99348C121.484 1.6744 123.475 3.16626 125.085 2.42928L125.005 2.02297C125.662 2.58604 126.296 2.15079 126.709 2.78929L126.728 2.59195L126.935 2.9112L127.334 2.4527L127.306 2.74872L127.794 2.59784L127.766 2.89386C128.752 2.49345 128.442 3.25959 129.418 2.95786C129.409 3.05652 129.165 3.13196 129.282 3.14358C130.376 2.85347 130.437 3.45711 131.512 3.36434L131.367 3.64874C131.827 3.79389 132.08 3.61977 132.432 3.65463L132.216 3.43405L132.775 3.78816L133.146 3.62568L133.127 3.82302C134.32 3.74187 133.587 3.96816 134.789 3.78834C134.545 3.86377 134.526 4.06111 134.752 4.18304C134.996 4.1076 135.808 4.28761 136.287 4.23541C136.169 4.22379 136.268 4.43275 136.386 4.44437C136.738 4.47922 136.991 4.30512 136.892 4.09616L136.898 4.11482L136.924 4.14435C137 4.23358 137.095 4.33204 137.331 4.34984L137.46 4.35161C137.489 4.05558 137.489 4.05558 137.958 4.10207L137.597 4.16589C137.686 4.47351 139.024 4.10796 138.273 4.53159C138.733 4.67676 138.996 4.40398 139.348 4.43882L139.014 4.20664L140.775 4.38092C140.766 4.4796 140.639 4.56664 140.503 4.75238L140.864 4.68856L140.738 4.7756C141.63 5.36191 175.812 4.43329 176.695 5.11829L176.602 5.05582L176.723 4.82226L176.7 5.05282L176.778 5.03938C176.951 5.02534 177.128 5.08952 177.241 5.03069L177.3 4.97903C177.39 5.28667 178.357 5.0836 178.808 5.32743C178.944 5.14169 179.07 5.05465 179.54 5.10111C180.225 5.36818 180.333 5.47846 180.531 5.89638C181.272 5.57141 182.319 5.77466 183.033 5.74571C183.042 5.64703 183.131 5.95467 182.653 6.00687C183.446 6.38422 184.225 5.66456 185.235 6.26247L185.263 5.96647C186.084 6.0478 185.089 6.54687 186.047 6.44248L185.958 6.13486C186.671 6.10591 186.671 6.10591 187.023 6.14075C186.77 6.31487 187.718 6.30914 187.23 6.46001L187.709 6.40782L187.7 6.50648C188.178 6.45428 188.413 6.47752 188.314 6.26856L188.577 5.99578L188.732 5.61273C189.192 5.75787 188.821 5.92037 189.272 6.16417L189.76 6.01332L189.751 6.11198L190.147 6.01982L190.112 6.03283C189.825 6.14998 189.708 6.39957 189.98 6.5931L190.056 6.6402C190.535 6.58801 189.199 6.10627 189.767 6.36169C188.81 6.46608 190.796 6.76228 189.819 7.06401C191.129 6.99449 191.472 7.12801 192.439 6.92496C192.168 7.59531 193.27 7.18151 193.858 7.16482H193.931C193.753 7.12396 193.781 7.05727 194.008 7.00557L194.091 6.98896L194.171 7.39526L195.472 7.42439C194.875 7.46496 195.678 7.74363 195.542 7.92935L196.401 7.61602C196.265 7.80174 196.129 7.98746 195.875 8.16156C195.866 8.26024 196.101 8.28348 196.345 8.20804L197.166 8.28937C197.265 8.49833 196.425 8.61434 196.885 8.75949C197.12 8.78273 197.472 8.81757 197.608 8.63185C197.602 8.69764 197.595 8.76342 197.557 8.79652L197.55 8.79982L197.599 8.78918C198.231 8.61978 198.829 8.06839 199.594 8.45482L199.749 8.545C198.918 8.56233 199.368 8.80615 198.988 9.0674C199.594 8.92803 199.204 9.28792 199.43 9.40975L199.603 8.82937C200.298 8.99772 199.556 9.32276 199.772 9.54327C200.016 9.46797 200.585 9.72333 200.495 9.41559C200.613 9.42728 201.073 9.57249 200.585 9.72333C201.27 9.99037 201.308 9.59565 201.444 9.40997C202.678 10.1298 202.256 9.59003 203.5 10.2111C203.247 10.3853 202.261 10.7857 201.955 10.2574C201.739 10.4822 201.901 10.9469 202.309 10.971L202.377 10.9688L202.303 10.9817C202.118 11.0064 201.923 11.0097 201.821 10.9675L201.772 10.9365C201.791 10.7392 202.073 10.2691 201.125 10.2747C200.392 10.5011 201.275 11.186 199.876 10.948L199.768 10.8376C200.002 10.861 200.228 10.9828 200.364 10.7972C200.636 10.4256 199.768 10.8376 200.04 10.4663C199.237 10.1875 198.819 10.8435 198.115 10.7738C197.566 10.3208 198.857 10.4487 198.533 10.1178L197.937 10.1583C198.77 10.0676 197.923 9.73537 197.855 9.5357L197.853 9.52482C197.66 9.85408 197.15 9.46641 197.317 9.90288L197.359 10.0016C196.294 9.99577 194.613 10.2278 194.092 9.47898C193.711 9.74019 194.542 9.72288 193.82 9.85033C193.486 9.61813 192.538 9.62397 192.078 9.47876C192.214 9.29309 192.106 9.18271 191.754 9.14787C191.618 9.33355 191.716 9.5426 191.012 9.47291C191.021 9.37423 190.913 9.26386 190.805 9.15372C190.571 9.13034 190.444 9.21733 190.434 9.31601L190.218 9.0955L189.604 9.33355L189.613 9.23487C188.674 9.1418 189.467 9.51922 189.683 9.73974L189.214 9.69321C189.646 10.1345 189.963 10.1169 189.611 10.0821C189.963 10.1169 189.883 9.71051 190.146 9.43785C190.155 9.33917 189.559 9.37963 189.451 9.26948C188.845 9.40863 189.54 9.57699 189.404 9.76289L188.836 9.50731L188.963 9.42031C188.737 9.29848 188.521 9.07774 188.169 9.0429C188.106 9.08645 188.101 9.13581 188.126 9.18652L188.145 9.21482L188.099 9.17709C187.926 9.03517 187.772 8.89793 187.992 8.77555L188.08 8.73532C187.991 8.4277 187.512 8.4799 187.385 8.56693C187.817 9.00806 185.831 8.7119 186.479 9.37356L186.476 9.36982L186.442 9.33391C186.276 9.24153 185.732 9.52651 185.554 9.57119L185.512 9.57677C185.493 9.77413 185.484 9.87281 185.719 9.89596C185.601 9.88427 185.601 9.88427 185.592 9.98296L186.033 10.3256C185.348 10.0585 185.24 9.94811 185.277 9.55339C184.564 9.58239 185.024 9.7276 184.301 9.85528C184.672 9.69276 184.564 9.58239 184.329 9.55923C184.69 9.49539 184.944 9.32118 185.423 9.26903C184.484 9.1762 185.038 8.33457 185.39 8.36942C184.93 8.22427 184.841 7.91665 184.362 7.96885L183.963 8.42734L183.775 7.91074C183.432 7.77722 183.061 7.93969 183.042 8.13703C183.836 8.51438 182.47 9.17597 182.695 9.29781L182.694 9.29582L182.627 9.24533C182.518 9.12844 182.566 8.94992 182.452 8.88846L182.381 8.86831C182.507 8.78125 182.517 8.68259 182.409 8.57231C181.794 8.81022 181.479 8.38068 181.432 8.87402L181.198 8.8508C181.414 9.07145 181.052 9.13529 180.925 9.22228L180.601 8.89139L180.085 9.33827C179.625 9.19306 178.578 8.98985 178.362 8.76927L178.108 8.94332C178.001 8.83308 178.047 8.33974 177.578 8.29326C177.414 8.775 176.385 8.37441 176.221 8.85615C175.935 8.13058 141.527 8.93725 141.719 8.15956C141.123 8.20013 140.184 8.10716 140.128 8.6992V8.69282L140.165 8.30482L140.15 8.36771C140.071 8.5438 139.736 8.38902 139.514 8.34343L139.452 8.33347C139.489 7.93879 138.151 8.30432 138.217 7.61364C137.621 7.65421 137.945 7.98508 138.043 8.19404C137.719 7.86317 137.377 7.72963 136.654 7.85726C136.555 7.92498 136.101 7.95754 135.841 8.05605L135.804 8.07282L135.48 7.74107C135.326 8.1927 134.858 7.56282 134.205 7.58748L134.071 7.60166C134.198 7.5146 134.208 7.41592 134.208 7.41592L133.494 7.44489C133.348 7.72927 134.034 7.99634 133.898 8.18206C132.832 8.17614 131.959 7.39249 132.114 7.00944C131.733 7.27059 131.851 7.28221 131.128 7.40985L131.353 7.53175C130.306 7.3285 130.104 8.20492 128.677 8.26285C128.649 8.55884 129.597 8.55313 129.217 8.81429C128.738 8.86649 127.79 8.8722 127.466 8.54133C127.982 8.09446 126.799 8.07692 127.189 7.71711C126.602 7.659 126.799 8.07692 126.428 8.23942L126.473 8.21382L126.488 8.20645C126.644 8.07239 126.612 7.6409 126.539 7.41746L126.513 7.35138L125.457 7.24681C125.32 7.43253 125.663 7.56605 125.302 7.62987C125.194 7.51959 124.733 7.37444 124.489 7.44986C124.499 7.3512 123.912 7.29309 123.687 7.17119C123.442 7.24663 123.161 7.71675 122.964 7.29883C123.189 7.42073 123.208 7.22339 123.325 7.23501L122.64 6.96794C123.081 7.31042 121.311 7.23483 121.997 7.50188C121.734 7.77465 121.264 7.72817 121.039 7.60627C121.508 7.65275 121.184 7.32187 121.311 7.23483C120.715 7.2754 120.49 7.15348 120.011 7.20567C119.522 7.35655 119.865 7.49007 119.964 7.69904L118.907 7.59446C118.537 7.75694 119.476 7.84989 118.753 7.97752C119.006 7.80343 118.466 7.25198 117.987 7.30418C118.114 7.21712 118.015 7.00815 118.349 7.24036C118.368 7.04302 118.377 6.94434 118.151 6.82244C117.283 7.23445 117.109 7.81487 115.692 7.77409C115.086 7.91335 114.546 7.3619 114.382 7.84364C114.391 7.74496 114.391 7.74496 114.391 7.74496L113.443 7.75067C113.588 7.46629 114.264 7.83202 114.175 7.52438C113.363 7.34437 113.344 7.54171 112.776 7.28628C113.128 7.32115 113.598 7.36761 113.508 7.05999C112.579 6.86836 112.307 7.2398 111.466 7.35581C111.466 7.35581 111.457 7.45449 111.565 7.56477C111.105 7.41963 110.264 7.53564 109.678 7.47753L109.405 7.84899C110.307 8.33662 110.255 7.6343 111.049 8.01165C110.776 8.38311 109.866 7.99414 109.377 8.14499C109.415 7.75031 108.964 7.50651 108.739 7.38458C108.016 7.51222 107.809 7.19297 107.34 7.14649C106.969 7.30896 107.926 7.20457 107.194 7.43089C106.002 7.51204 107.344 5.85215 106.067 6.82133L106.157 7.12898C105.929 7.10642 105.504 7.06441 105.321 7.1272L105.277 7.14682C105.096 7.00325 104.575 7.15647 104.907 6.96146L104.992 6.9141L104.983 7.01279C105.218 7.03601 105.236 6.83867 105.363 6.75163C105.185 6.13637 104.335 6.35104 103.758 6.19427C103.875 6.20589 104.002 6.11883 104.119 6.13045C103.424 5.96207 103.865 6.30455 103.025 6.42056C102.889 6.60628 103.18 6.0375 102.574 6.17676C102.077 6.42629 102.654 6.58306 102.509 6.86744C102.274 6.84422 102.157 6.8326 101.922 6.80935L101.779 7.22482C101.752 7.13076 101.427 7.16026 101.139 7.20695L101.053 7.22136C101.668 6.98345 101.706 6.58877 102.105 6.13027C102.321 6.35086 102.574 6.17676 102.593 5.97942C101.673 5.68911 101.344 6.65259 100.678 6.18818C100.767 6.49582 100.64 6.58286 101.1 6.72803C100.866 6.70478 100.72 6.98916 100.359 7.05298L100.485 6.96594C99.6637 6.88459 98.8702 6.50726 98.3633 6.85546C98.3727 6.7568 98.382 6.65812 98.382 6.65812C97.7364 6.52504 97.7045 6.54878 97.5 6.6515V0.213574C97.7402 0.225943 97.9641 0.24241 98.1606 0.26186L98.1417 0.459201L99.3625 0.0820312ZM65.6533 1.49988C67.071 1.54063 69.3106 1.66272 71.0709 1.83701L71.3339 1.56424L71.4231 1.87188C72.9771 1.72691 74.7986 2.50483 76.226 2.44693L76.1366 2.13929C76.8127 2.50501 76.8691 1.91299 76.9395 2.41798C77.5858 2.34752 97.51 0.36252 98.1606 0.26186L99 7.5C98.9341 7.54689 78.6716 8.3561 78.5085 8.33995L75.9077 8.28168C77.0109 7.89289 75.349 7.92758 75.2503 7.71861L74.9781 8.09005C74.518 7.94491 75.3395 8.02623 75.0063 7.79403L74.2833 7.92166L74.2223 7.31802C73.3913 7.33535 72.5604 7.35271 72.0439 7.79958C69.4524 7.64264 66.2178 8.0196 63.5981 8.15868C62.6497 8.16439 62.7154 7.47369 62.0912 7.81028L62.1435 7.78482L62.1448 7.76856C62.1393 7.73926 62.1194 7.69809 62.1121 7.65555L62.1099 7.61294C61.279 7.63027 60.0959 7.61276 59.401 7.44437C59.1475 7.61847 59.6076 7.76362 59.5981 7.8623C59.2554 7.72875 59.0489 7.40951 58.5606 7.56039C58.8846 7.89125 57.8096 7.98402 57.3401 7.93753C57.7109 7.77506 58.2979 7.83314 58.2084 7.52552C57.5231 7.25845 57.3775 7.54285 57.0066 7.70533L56.88 7.79239C55.6594 8.16956 55.7343 7.3802 54.5138 7.75734C54.495 7.95468 55.1007 7.81545 54.9646 8.00117C53.7533 8.27966 52.636 7.57145 51.1807 7.92537C51.19 7.82669 51.4342 7.75128 51.3168 7.73965L50.6032 7.76861C50.8473 7.69317 50.5046 7.55965 50.6407 7.37393C50.542 7.16497 50.1711 7.32744 49.9364 7.3042C49.5375 7.76269 50.8191 7.98919 49.7346 8.18062C50.0256 7.61184 48.6876 7.97739 48.8332 7.69299C47.0726 7.51871 45.96 8.00616 44.2888 8.1395C44.1997 7.83186 43.8568 7.69834 43.7676 7.39072L43.3967 7.55319L43.4061 7.45451C42.8287 7.29775 42.4391 7.65758 42.8992 7.80273L42.9115 7.80182L42.8478 7.81479C42.5697 7.86804 42.2871 7.92738 42.0655 7.79365L41.9601 7.70978C42.0869 7.62272 41.9695 7.6111 41.979 7.51244L41.5 7.56463L41.5799 7.97094C39.5754 7.87208 75.6039 7.95895 74.0501 8.1039C73.2379 7.92391 72.0453 8.00506 71.8388 7.6858C70.8999 7.59285 69.5712 7.85974 68.9656 7.99897C68.515 7.75514 67.0409 8.30641 67.0971 7.71439L66.4727 8.05098L66.4914 7.85364C66.0034 8.0045 66.1487 7.72012 65.6699 7.77232L65.6417 8.06831C65.1724 8.02185 64.0785 8.31196 63.2568 8.23061L63.2663 8.13195C62.9049 8.19577 62.7688 8.38149 62.4259 8.24796L62.3367 7.94032C60.1209 8.81656 57.8298 7.99216 55.2995 8.43885C53.938 7.80606 52.9945 9.00738 51.5435 8.06703C51.074 8.02057 50.9005 8.60097 51.4966 8.56039C47.1963 8.9314 42.3654 8.65242 38.0558 9.12225C34.7507 8.99412 30.6852 9.3884 28.6006 8.8833C28.4738 8.97029 28.826 9.00536 28.9339 9.1155C28.3284 9.25487 28.6099 8.78466 28.502 8.67438C28.1311 8.83686 27.6523 8.88914 27.3894 9.16181L27.7323 9.29533C25.3848 9.0629 23.0703 9.7303 20.8778 9.11483L20.8591 9.31219C19.4225 9.46864 18.568 8.48774 16.8591 9.0157C17.0047 8.73139 17.5915 8.78947 17.2582 8.55727C14.9625 9.02716 13.3051 7.76755 10.7042 7.70926C11.0563 7.74413 11.2018 7.45973 11.2112 7.36107L10.3521 7.6744C9.90138 7.43059 10.8403 7.52354 10.6243 7.30296C9.57741 7.09971 10.3333 7.87174 9.28641 7.66851C9.20655 7.26221 8.23945 7.46526 8.13147 7.35498C7.88736 7.43042 7.85922 7.72641 7.51648 7.59289C7.27237 7.66833 7.76062 7.51745 7.65261 7.40717L6.21605 7.56376C6.2348 7.36642 5.52121 7.39537 6.1362 7.15746C5.71359 6.61761 5.14097 7.65653 4.84513 7.02964L4.10339 7.35462C3.77004 7.12241 4.23014 7.26756 4.2489 7.07022L3.65268 7.11079C3.67142 6.91345 3.69957 6.61743 3.33807 6.68125C2.73247 6.8205 3.77943 7.02373 2.95783 6.9424C2.59636 7.00622 3.23945 6.47229 3.69957 6.61743L3.01411 6.35038L3.13147 6.36201C2.89672 6.33876 3.05161 5.9557 2.45539 5.99628L2.6995 5.92084C1.88729 5.74083 1.70427 6.41991 1.44142 6.69269C1.21605 6.57079 0.990689 6.44886 0.638582 6.41402L0.61 6.70982L0.491897 6.65213C0.0547515 6.3829 0.564494 8.38825 0.120304 8.19312L0 8.15365C0.0281308 7.85765 0.333356 8.38585 0.72297 8.02604C0.398991 7.69518 1.13134 7.46886 1.27684 7.18448C2.90577 6.25014 6.06052 5.46687 9.91012 4.85196C13.7597 4.23708 18.1774 3.8776 22.3603 3.49491C30.3047 2.88075 37.469 2.80216 38.3335 2.79474L38.4208 2.79407C38.4208 2.79407 39.5109 3.30064 39.6965 2.9749L39.697 2.97088L39.7105 3.02612C39.7909 3.24151 40.1883 3.33831 40.6213 3.32795L40.7401 3.32247C41.2471 2.97425 41.8153 3.2297 42.3033 3.07883L42.2941 3.17751C42.8715 3.33427 43.3878 2.8874 43.876 2.73652L44.4348 3.09063C44.9136 3.03843 45.6273 3.00948 45.8901 2.7367C48.1389 2.76012 50.9839 2.74297 52.8101 2.22657C53.2328 2.76639 54.796 2.52275 55.5096 2.4938L55.5988 2.80144L56.1057 2.45322C56.087 2.65056 56.674 2.70867 57.0166 2.84219L57.035 2.64488L57.0499 2.66072C57.1672 2.71847 57.6917 2.39511 57.7227 2.80403L57.7207 2.9119C58.9507 2.43607 59.6738 2.30844 60.8849 2.02995C60.7582 2.11701 60.7488 2.21567 60.6221 2.30273C61.744 1.7166 61.4954 3.08638 62.6362 2.30291C64.4434 1.98385 66.5562 2.19299 68.0725 2.4427C68.4247 2.47757 68.6781 2.30347 68.9224 2.22803L67.8849 1.92612L69.182 2.05388L69.6491 2.05706C70.754 2.04116 71.8578 1.87116 72.8322 1.72183L73.2414 1.65961C75.9222 2.12418 40.9965 1.64853 43.424 2.28722L43.7149 1.71844C43.931 1.93902 43.7854 2.2234 44.2455 2.36857C44.7337 2.21769 44.7619 1.92169 44.7806 1.72433L45.3394 2.07846C45.3955 1.48642 46.9636 2.43845 47.264 1.77099C47.3627 1.97996 48.4097 2.18321 48.6724 1.91043C48.9072 1.93367 48.5084 2.39217 49.2219 2.36322C49.0341 1.84661 49.3673 2.07882 49.865 1.82928C50.3438 1.77709 50.6491 2.30529 51.1373 2.15444L50.8931 2.22985C51.1186 2.35178 51.9588 2.23576 52.3297 2.07329C52.5832 1.89917 51.9965 1.84108 52.25 1.66699C52.4658 1.88755 52.9259 2.03271 52.4283 2.28225C52.771 2.41577 53.4941 2.28814 53.4049 1.98052L53.062 1.84697L55.3108 1.8704C54.8225 2.02127 55.4095 2.07936 55.6255 2.29994C55.8977 1.9285 56.7379 1.81249 56.8648 1.72543L57.1793 2.15498L57.3154 1.96926L57.4235 2.07954L58.0479 1.74296C58.2637 1.96355 58.8319 2.21897 59.2121 1.95782L58.8788 1.72563C59.0775 1.74528 59.5081 2.00184 59.8008 1.85528L59.8245 1.83888L59.8251 1.8525C59.83 1.89725 59.8554 1.94404 59.8294 1.98572L59.799 2.01592C61.2074 2.15533 62.5171 2.08581 63.8364 1.9176L63.719 1.906C64.4233 1.97571 65.0477 1.63911 65.6533 1.49988Z" fill="#66BD90"/>
</svg>
