<svg width="17" height="16" viewBox="0 0 17 16" fill="none" xmlns="http://www.w3.org/2000/svg">
<mask id="mask0_803_51289" style="mask-type:alpha" maskUnits="userSpaceOnUse" x="0" y="0" width="17" height="16">
<path fill-rule="evenodd" clip-rule="evenodd" d="M3.17789 11.894C3.38828 12.1049 3.49363 12.3988 3.46523 12.6954C3.40159 13.3601 3.25502 14.0519 3.06677 14.6945C4.46166 14.3721 5.31358 13.9981 5.70082 13.8019C5.92062 13.6905 6.17381 13.6642 6.41182 13.728C7.06966 13.9044 7.77076 14 8.5 14C12.4956 14 15.5 11.1925 15.5 8C15.5 4.80754 12.4956 2 8.5 2C4.5044 2 1.5 4.80754 1.5 8C1.5 9.46809 2.1173 10.8304 3.17789 11.894ZM2.68489 15.7989C2.67816 15.8003 2.67142 15.8016 2.66466 15.8029C2.57283 15.821 2.47922 15.8388 2.38382 15.8563C2.25 15.8808 2.11264 15.9047 1.97172 15.9277C1.77271 15.9603 1.62037 15.7521 1.69898 15.5664C1.75034 15.4451 1.80097 15.3179 1.8503 15.1861C1.88164 15.1023 1.91245 15.0167 1.94259 14.9294C1.94389 14.9256 1.94518 14.9219 1.94648 14.9181C2.19422 14.1984 2.39596 13.3711 2.46979 12.6001C1.24306 11.3699 0.5 9.76087 0.5 8C0.5 4.13401 4.08172 1 8.5 1C12.9183 1 16.5 4.13401 16.5 8C16.5 11.866 12.9183 15 8.5 15C7.68324 15 6.89508 14.8929 6.15284 14.6939C5.63337 14.9571 4.51434 15.4363 2.68489 15.7989Z" fill="black"/>
</mask>
<g mask="url(#mask0_803_51289)">
<rect x="0.5" width="16" height="16" fill="#4C6FFF"/>
</g>
</svg>
