<svg width="16" height="16" viewBox="0 0 16 16" fill="none" xmlns="http://www.w3.org/2000/svg">
<path d="M3.33333 9.83439C2.32 9.83439 1.5 9.01439 1.5 8.00106C1.5 6.98772 2.32 6.16772 3.33333 6.16772C4.34667 6.16772 5.16667 6.98772 5.16667 8.00106C5.16667 9.01439 4.34667 9.83439 3.33333 9.83439ZM3.33333 7.16772C2.87333 7.16772 2.5 7.54106 2.5 8.00106C2.5 8.46106 2.87333 8.83439 3.33333 8.83439C3.79333 8.83439 4.16667 8.46106 4.16667 8.00106C4.16667 7.54106 3.79333 7.16772 3.33333 7.16772Z" fill="#292D32"/>
<path d="M12.6668 9.83439C11.6535 9.83439 10.8335 9.01439 10.8335 8.00106C10.8335 6.98772 11.6535 6.16772 12.6668 6.16772C13.6802 6.16772 14.5002 6.98772 14.5002 8.00106C14.5002 9.01439 13.6802 9.83439 12.6668 9.83439ZM12.6668 7.16772C12.2068 7.16772 11.8335 7.54106 11.8335 8.00106C11.8335 8.46106 12.2068 8.83439 12.6668 8.83439C13.1268 8.83439 13.5002 8.46106 13.5002 8.00106C13.5002 7.54106 13.1268 7.16772 12.6668 7.16772Z" fill="#292D32"/>
<path d="M7.99984 9.83439C6.9865 9.83439 6.1665 9.01439 6.1665 8.00106C6.1665 6.98772 6.9865 6.16772 7.99984 6.16772C9.01317 6.16772 9.83317 6.98772 9.83317 8.00106C9.83317 9.01439 9.01317 9.83439 7.99984 9.83439ZM7.99984 7.16772C7.53984 7.16772 7.1665 7.54106 7.1665 8.00106C7.1665 8.46106 7.53984 8.83439 7.99984 8.83439C8.45984 8.83439 8.83317 8.46106 8.83317 8.00106C8.83317 7.54106 8.45984 7.16772 7.99984 7.16772Z" fill="#292D32"/>
</svg>
