<svg width="16" height="17" viewBox="0 0 16 17" fill="none" xmlns="http://www.w3.org/2000/svg">
<path d="M5.66683 13.1666H5.3335C2.66683 13.1666 1.3335 12.4999 1.3335 9.16659V5.83325C1.3335 3.16659 2.66683 1.83325 5.3335 1.83325H10.6668C13.3335 1.83325 14.6668 3.16659 14.6668 5.83325V9.16659C14.6668 11.8333 13.3335 13.1666 10.6668 13.1666H10.3335C10.1268 13.1666 9.92683 13.2666 9.80016 13.4333L8.80016 14.7666C8.36016 15.3533 7.64016 15.3533 7.20016 14.7666L6.20016 13.4333C6.0935 13.2866 5.84683 13.1666 5.66683 13.1666Z" stroke="currentColor" stroke-width="1.5" stroke-miterlimit="10" stroke-linecap="round" stroke-linejoin="round"/>
<path d="M4.6665 5.83325H11.3332" stroke="currentColor" stroke-width="1.5" stroke-linecap="round" stroke-linejoin="round"/>
<path d="M4.6665 9.16675H8.6665" stroke="currentColor" stroke-width="1.5" stroke-linecap="round" stroke-linejoin="round"/>
</svg>
