<svg width="61" height="61" viewBox="0 0 61 61" fill="none" xmlns="http://www.w3.org/2000/svg">
<circle cx="30.5" cy="30.5" r="30" stroke="#E2E8F0"/>
<path d="M31 29.5199C30.59 29.5199 30.25 29.1799 30.25 28.7699V25.4399C30.25 25.0299 30.59 24.6899 31 24.6899C31.41 24.6899 31.75 25.0299 31.75 25.4399V28.7699C31.75 29.1899 31.41 29.5199 31 29.5199Z" fill="#292D32"/>
<path d="M31.0199 39.35C28.4399 39.35 25.8699 38.94 23.4199 38.12C22.5099 37.82 21.8199 37.17 21.5199 36.35C21.2199 35.53 21.3199 34.59 21.8099 33.77L23.0799 31.65C23.3599 31.18 23.6099 30.3 23.6099 29.75V27.65C23.6099 23.56 26.9299 20.24 31.0199 20.24C35.1099 20.24 38.4299 23.56 38.4299 27.65V29.75C38.4299 30.29 38.6799 31.18 38.9599 31.65L40.2299 33.77C40.6999 34.55 40.7799 35.48 40.4699 36.33C40.1599 37.18 39.4799 37.83 38.6199 38.12C36.1699 38.95 33.5999 39.35 31.0199 39.35ZM31.0199 21.75C27.7599 21.75 25.1099 24.4 25.1099 27.66V29.76C25.1099 30.57 24.7899 31.74 24.3699 32.43L23.0999 34.56C22.8399 34.99 22.7799 35.45 22.9299 35.85C23.0799 36.25 23.4199 36.55 23.8999 36.71C28.4999 38.24 33.5599 38.24 38.1599 36.71C38.5899 36.57 38.9199 36.25 39.0699 35.83C39.2299 35.41 39.1799 34.95 38.9499 34.56L37.6799 32.44C37.2599 31.75 36.9399 30.58 36.9399 29.77V27.67C36.9299 24.4 34.2799 21.75 31.0199 21.75Z" fill="#292D32"/>
<path d="M30.9999 41.9001C29.9299 41.9001 28.8799 41.4601 28.1199 40.7001C27.3599 39.9401 26.9199 38.8901 26.9199 37.8201H28.4199C28.4199 38.5001 28.6999 39.1601 29.1799 39.6401C29.6599 40.1201 30.3199 40.4001 30.9999 40.4001C32.4199 40.4001 33.5799 39.2401 33.5799 37.8201H35.0799C35.0799 40.0701 33.2499 41.9001 30.9999 41.9001Z" fill="#292D32"/>
<circle cx="51" cy="8" r="5" fill="#FF4301"/>
</svg>
