<svg width="16" height="17" viewBox="0 0 16 17" fill="none" xmlns="http://www.w3.org/2000/svg">
<path d="M12.0002 5.27325C11.9602 5.26659 11.9135 5.26659 11.8735 5.27325C10.9535 5.23992 10.2202 4.48659 10.2202 3.55325C10.2202 2.59992 10.9869 1.83325 11.9402 1.83325C12.8935 1.83325 13.6602 2.60659 13.6602 3.55325C13.6535 4.48659 12.9202 5.23992 12.0002 5.27325Z" stroke="currentColor" stroke-width="1.5" stroke-linecap="round" stroke-linejoin="round"/>
<path d="M11.3135 10.1267C12.2268 10.28 13.2335 10.12 13.9401 9.64669C14.8801 9.02003 14.8801 7.99336 13.9401 7.36669C13.2268 6.89336 12.2068 6.73336 11.2935 6.89336" stroke="currentColor" stroke-width="1.5" stroke-linecap="round" stroke-linejoin="round"/>
<path d="M3.97983 5.27325C4.01983 5.26659 4.06649 5.26659 4.10649 5.27325C5.02649 5.23992 5.75982 4.48659 5.75982 3.55325C5.75982 2.59992 4.99316 1.83325 4.03983 1.83325C3.08649 1.83325 2.31982 2.60659 2.31982 3.55325C2.32649 4.48659 3.05983 5.23992 3.97983 5.27325Z" stroke="currentColor" stroke-width="1.5" stroke-linecap="round" stroke-linejoin="round"/>
<path d="M4.66663 10.1264C3.75329 10.2798 2.74663 10.1198 2.03996 9.64645C1.09996 9.01978 1.09996 7.99312 2.03996 7.36645C2.75329 6.89312 3.77329 6.73311 4.68663 6.89311" stroke="currentColor" stroke-width="1.5" stroke-linecap="round" stroke-linejoin="round"/>
<path d="M7.99973 10.2532C7.95973 10.2466 7.91306 10.2466 7.87306 10.2532C6.95306 10.2199 6.21973 9.46657 6.21973 8.53323C6.21973 7.5799 6.98639 6.81323 7.93973 6.81323C8.89306 6.81323 9.65973 7.58657 9.65973 8.53323C9.65306 9.46657 8.91973 10.2266 7.99973 10.2532Z" stroke="currentColor" stroke-width="1.5" stroke-linecap="round" stroke-linejoin="round"/>
<path d="M6.05998 12.3532C5.11998 12.9799 5.11998 14.0066 6.05998 14.6332C7.12665 15.3466 8.87331 15.3466 9.93998 14.6332C10.88 14.0066 10.88 12.9799 9.93998 12.3532C8.87998 11.6466 7.12665 11.6466 6.05998 12.3532Z" stroke="currentColor" stroke-width="1.5" stroke-linecap="round" stroke-linejoin="round"/>
</svg>
