<svg width="40" height="40" viewBox="0 0 40 40" fill="none" xmlns="http://www.w3.org/2000/svg">
<path fill-rule="evenodd" clip-rule="evenodd" d="M23.293 3.33386C23.3647 3.33386 23.435 3.33991 23.5034 3.35153L23.7286 3.35286C24.0686 3.35286 24.3936 3.4912 24.6303 3.7362L33.0736 12.5312C33.2953 12.7629 33.4205 13.0745 33.4205 13.3962V28.7129C33.447 32.8945 30.187 36.2929 25.9986 36.4429H12.432C8.36491 36.3554 5.10313 33.0689 5.00256 29.0433L5.00195 10.8179C5.10029 6.68286 8.51362 3.35286 12.617 3.35286L23.0825 3.35153C23.1509 3.33991 23.2212 3.33386 23.293 3.33386ZM22.042 5.85219L12.622 5.85286C9.86029 5.85286 7.56695 8.08953 7.50195 10.8479V28.7129C7.44195 31.5479 9.67529 33.8812 12.4836 33.9429H25.9553C28.737 33.8429 30.9386 31.5479 30.9204 28.7212L30.9203 14.9722L27.573 14.9739C24.5213 14.9655 22.043 12.4789 22.043 9.43219L22.042 5.85219ZM18.5693 15.2654C18.9143 15.2654 19.2268 15.4054 19.453 15.6316L19.4548 15.6327L23.3648 19.5594C23.8515 20.0494 23.8498 20.8394 23.3615 21.326C22.8715 21.8127 22.0798 21.8127 21.5931 21.3227L19.8186 19.5405L19.8193 26.5837C19.8193 27.2737 19.2593 27.8337 18.5693 27.8337C17.8793 27.8337 17.3193 27.2737 17.3193 26.5837L17.3186 19.5405L15.5465 21.3227C15.3031 21.5694 14.9815 21.691 14.6615 21.691C14.3431 21.691 14.0231 21.5694 13.7798 21.326C13.2915 20.8394 13.2881 20.0494 13.7765 19.5594L17.6831 15.6327L17.7389 15.5813C17.763 15.5598 17.7879 15.5393 17.8137 15.5197L17.6831 15.6327C17.7296 15.586 17.7796 15.544 17.8325 15.5066C18.0384 15.3549 18.2934 15.2654 18.5693 15.2654ZM24.542 7.25386L24.543 9.43219C24.543 11.1055 25.903 12.4689 27.5763 12.4739L29.5503 12.4722L24.542 7.25386Z" fill="#718096"/>
</svg>
